# xmcd
#
# Track frame offsets: 
#        150
#        37833
#        76767
#        92569
#        114948
#        156256
#        191540
#        216954
#
# Disc length: 3314 seconds
#
# Revision: 0
# Processed by: cddbd v1.4PL0 Copyright (c) Steve Scherf et al.
# Submitted via: ExactAudioCopy v0.90b4
#
DISCID=570cf008
DTITLE=Van Morrison - Fast Train Coming
DYEAR=2000
DGENRE=Celtic
TTITLE0=It's All In The Game
TTITLE1=In The Afternoon
TTITLE2=Precious Time
TTITLE3=Georgia On My Mind
TTITLE4=Help Me > Good Morning Little Schoolgirl
TTITLE5=It's A Man's Man's Man's World
TTITLE6=It's All Over Now, Baby Blue
TTITLE7=Fast Train
EXTD=
EXTT0=
EXTT1=
EXTT2=
EXTT3=
EXTT4=
EXTT5=
EXTT6=
EXTT7=
PLAYORDER=
